<svg id="svg" version="1.1" xmlns="http://www.w3.org/2000/svg" xmlns:xlink="http://www.w3.org/1999/xlink" width="400" height="400" viewBox="0, 0, 400,400"><g id="svgg"><path id="path1" d="M196.417 86.341 C 196.142 86.407,195.556 86.469,195.115 86.480 C 194.675 86.491,194.000 86.569,193.615 86.654 C 193.231 86.739,192.167 86.939,191.250 87.098 C 188.982 87.493,184.562 89.006,182.715 90.019 C 180.266 91.362,179.032 92.098,178.417 92.580 C 178.050 92.867,177.150 93.522,176.417 94.035 C 175.044 94.995,171.304 98.698,170.417 99.975 C 170.142 100.370,169.663 101.039,169.353 101.460 C 166.867 104.842,164.906 109.140,163.860 113.500 C 162.931 117.377,162.985 115.330,163.044 144.250 L 163.098 170.917 163.538 172.583 C 163.944 174.123,164.747 176.009,165.997 178.363 C 166.281 178.898,166.500 179.564,166.500 179.895 C 166.500 180.890,166.642 180.777,171.426 175.991 C 173.986 173.429,176.174 171.333,176.287 171.333 C 176.660 171.333,176.670 170.796,176.732 145.500 C 176.798 118.358,176.781 118.869,177.745 115.333 C 178.089 114.070,180.012 110.107,180.575 109.500 C 180.788 109.271,181.077 108.858,181.217 108.583 C 181.514 108.001,184.872 104.701,186.085 103.799 C 193.164 98.539,206.502 98.448,213.725 103.610 C 214.197 103.947,214.658 104.311,214.750 104.419 C 214.998 104.711,216.052 105.241,216.292 105.193 C 216.406 105.171,216.500 105.273,216.500 105.421 C 216.500 105.774,216.792 106.046,217.466 106.322 C 218.020 106.549,218.599 107.372,218.414 107.672 C 218.359 107.761,218.412 107.834,218.532 107.834 C 218.841 107.835,220.000 108.934,220.000 109.226 C 220.000 109.359,220.259 109.778,220.575 110.157 C 221.743 111.555,223.234 115.302,223.662 117.917 C 223.768 118.558,223.924 119.445,224.010 119.888 C 224.306 121.409,224.209 135.510,223.900 135.851 C 223.339 136.472,223.651 136.500,231.022 136.500 L 238.192 136.500 238.124 127.458 C 238.054 118.120,237.961 116.632,237.316 114.572 C 237.142 114.015,237.000 113.401,237.000 113.207 C 237.000 112.779,236.180 110.147,235.978 109.925 C 235.898 109.838,235.833 109.638,235.833 109.481 C 235.833 109.017,234.815 107.167,234.560 107.167 C 234.431 107.167,234.251 106.960,234.161 106.708 C 234.071 106.456,233.886 106.051,233.749 105.808 C 233.612 105.564,233.500 105.246,233.500 105.099 C 233.500 104.953,233.416 104.833,233.314 104.833 C 233.210 104.833,233.166 104.686,233.215 104.500 C 233.270 104.290,233.220 104.167,233.081 104.167 C 232.860 104.167,230.667 101.144,230.667 100.840 C 230.667 100.665,229.473 99.383,226.417 96.275 C 225.122 94.959,224.005 93.991,223.250 93.533 C 222.608 93.144,221.746 92.568,221.333 92.253 C 220.921 91.939,219.346 91.072,217.833 90.328 C 216.321 89.584,214.971 88.919,214.833 88.850 C 214.185 88.527,209.143 87.094,207.667 86.814 C 205.465 86.396,197.572 86.064,196.417 86.341 M157.405 142.162 C 157.305 142.261,153.312 142.346,146.997 142.383 C 140.562 142.421,136.223 142.514,135.333 142.634 C 129.770 143.386,123.908 145.900,119.223 149.544 C 118.842 149.841,118.129 150.394,117.640 150.773 C 116.439 151.703,113.275 154.958,112.948 155.599 C 112.804 155.882,112.221 156.670,111.653 157.349 C 111.085 158.028,110.487 158.894,110.324 159.273 C 110.161 159.653,109.716 160.419,109.336 160.976 C 108.956 161.533,108.394 162.610,108.088 163.369 C 107.781 164.129,107.255 165.350,106.918 166.083 C 106.187 167.672,105.293 170.637,104.655 173.583 C 103.794 177.560,103.656 186.915,104.414 189.875 C 104.553 190.417,104.667 191.187,104.667 191.586 C 104.667 191.985,104.751 192.523,104.854 192.781 C 104.957 193.039,105.142 193.662,105.263 194.167 C 105.711 196.019,106.976 199.494,107.766 201.042 C 107.895 201.294,108.117 201.744,108.261 202.042 C 108.404 202.340,108.605 202.733,108.708 202.917 C 108.811 203.100,109.176 203.815,109.520 204.506 C 109.864 205.197,110.300 205.902,110.489 206.074 C 110.678 206.245,110.833 206.475,110.833 206.585 C 110.833 206.695,111.083 207.115,111.389 207.518 C 112.608 209.126,113.148 210.022,113.050 210.276 C 112.970 210.484,113.026 210.514,113.319 210.421 C 113.579 210.339,113.679 210.370,113.658 210.527 C 113.592 211.004,113.684 211.167,114.155 211.411 C 114.423 211.549,114.691 211.814,114.749 211.998 C 114.808 212.183,114.960 212.333,115.086 212.333 C 115.213 212.333,115.377 212.441,115.450 212.571 C 115.523 212.702,115.658 212.834,115.750 212.863 C 115.842 212.893,115.894 212.984,115.867 213.066 C 115.802 213.261,116.672 214.167,116.925 214.167 C 117.032 214.167,117.627 214.684,118.245 215.317 C 118.864 215.949,119.718 216.639,120.144 216.849 C 120.569 217.059,121.104 217.397,121.333 217.600 C 121.926 218.126,122.634 218.526,125.000 219.678 C 127.735 221.009,127.635 220.964,128.500 221.236 C 128.912 221.366,129.662 221.622,130.167 221.806 C 131.256 222.203,134.211 222.920,135.500 223.101 C 136.962 223.305,183.213 223.259,184.583 223.052 C 186.374 222.781,188.457 222.187,189.795 221.564 C 190.462 221.254,191.101 221.000,191.215 221.000 C 191.329 221.000,191.699 220.813,192.036 220.583 C 192.373 220.354,192.684 220.167,192.727 220.167 C 192.963 220.167,195.377 218.400,196.133 217.674 C 197.080 216.764,197.116 216.500,196.291 216.500 C 195.831 216.500,195.228 215.961,191.155 211.905 L 186.540 207.309 185.312 207.928 C 182.394 209.398,183.594 209.333,159.240 209.333 C 138.487 209.333,137.858 209.324,136.490 209.000 C 135.716 208.817,134.762 208.592,134.369 208.499 C 132.886 208.150,129.148 206.540,128.903 206.145 C 128.852 206.062,128.440 205.806,127.988 205.577 C 127.536 205.348,127.166 205.106,127.166 205.039 C 127.165 204.972,126.905 204.740,126.589 204.525 C 124.557 203.141,121.147 199.013,121.429 198.278 C 121.474 198.159,121.322 197.961,121.090 197.837 C 120.540 197.543,120.115 196.882,120.219 196.483 C 120.265 196.309,120.242 196.203,120.169 196.248 C 119.927 196.398,119.437 195.427,119.474 194.871 C 119.519 194.200,119.211 193.000,118.994 193.000 C 118.905 193.000,118.846 192.944,118.861 192.875 C 118.920 192.612,118.620 191.401,118.413 191.071 C 118.295 190.881,118.161 190.244,118.116 189.655 C 118.072 189.065,117.936 187.946,117.816 187.167 C 117.528 185.306,117.517 179.045,117.798 177.083 C 117.916 176.258,118.078 175.133,118.159 174.583 C 118.299 173.623,118.630 172.479,119.074 171.417 C 119.189 171.142,119.377 170.654,119.492 170.333 C 119.853 169.325,120.380 168.277,120.916 167.500 C 121.200 167.087,121.669 166.337,121.956 165.833 C 122.769 164.409,127.971 159.500,128.668 159.500 C 128.815 159.500,129.179 159.321,129.476 159.101 C 130.425 158.401,133.237 157.408,136.167 156.739 C 137.252 156.490,138.765 156.443,147.667 156.379 L 157.917 156.304 157.960 149.152 C 158.005 141.841,157.984 141.583,157.405 142.162 M215.167 142.331 C 213.814 142.484,211.160 143.107,210.167 143.505 C 209.754 143.670,209.042 143.941,208.583 144.107 C 208.125 144.272,207.266 144.739,206.674 145.143 C 206.082 145.548,205.399 145.962,205.157 146.064 C 204.738 146.241,201.056 149.634,201.187 149.722 C 201.809 150.137,202.648 150.631,202.875 150.715 C 203.035 150.774,203.167 150.935,203.167 151.073 C 203.167 151.227,203.263 151.286,203.417 151.227 C 203.590 151.160,203.667 151.238,203.667 151.482 C 203.667 151.675,203.748 151.833,203.848 151.833 C 204.105 151.833,205.000 152.707,205.000 152.958 C 205.000 153.073,205.112 153.167,205.250 153.167 C 205.387 153.167,205.500 153.237,205.500 153.322 C 205.500 153.408,205.643 153.523,205.817 153.578 C 205.992 153.634,206.258 153.939,206.408 154.256 C 206.559 154.574,206.750 154.833,206.833 154.833 C 207.033 154.833,207.859 155.606,207.845 155.780 C 207.838 155.855,207.908 155.926,208.000 155.938 C 208.092 155.949,208.250 155.968,208.351 155.979 C 208.453 155.991,208.494 156.107,208.444 156.239 C 208.391 156.377,208.541 156.622,208.801 156.821 C 209.048 157.010,209.456 157.320,209.708 157.511 C 209.960 157.702,210.167 157.965,210.167 158.095 C 210.167 158.226,210.284 158.333,210.427 158.333 C 210.569 158.333,210.638 158.412,210.579 158.507 C 210.231 159.070,211.407 159.764,211.835 159.248 C 212.885 157.982,215.786 156.804,218.583 156.506 C 221.875 156.155,263.376 156.337,264.333 156.706 C 264.746 156.865,265.202 156.996,265.347 156.998 C 265.627 157.000,267.519 157.576,268.083 157.830 C 269.336 158.395,270.969 159.190,271.244 159.370 C 271.424 159.487,271.867 159.771,272.229 160.000 C 272.590 160.229,273.081 160.547,273.318 160.706 C 273.556 160.866,273.862 161.049,274.000 161.114 C 274.271 161.241,274.667 161.598,274.667 161.715 C 274.667 161.863,276.357 163.500,276.509 163.500 C 276.596 163.500,276.667 163.561,276.667 163.636 C 276.667 163.710,276.926 163.895,277.242 164.046 C 277.559 164.197,277.941 164.558,278.091 164.848 C 278.241 165.138,278.548 165.535,278.773 165.729 C 280.189 166.954,282.220 171.803,282.979 175.771 C 283.369 177.814,283.504 185.772,283.176 187.446 C 283.089 187.888,282.935 188.775,282.834 189.417 C 282.733 190.058,282.546 190.958,282.419 191.417 C 282.292 191.875,282.100 192.588,281.993 193.000 C 280.699 197.956,274.994 204.567,270.015 206.877 C 265.252 209.088,263.455 209.333,252.051 209.333 L 242.667 209.333 242.667 215.678 C 242.667 222.069,242.626 222.548,242.059 222.883 C 241.935 222.957,241.833 223.090,241.833 223.179 C 241.833 223.415,263.799 223.277,265.000 223.034 C 267.269 222.574,268.223 222.322,270.169 221.670 C 271.314 221.287,272.568 220.829,272.957 220.653 C 273.345 220.477,273.722 220.333,273.794 220.333 C 273.997 220.333,276.717 218.891,278.449 217.865 C 279.209 217.416,282.108 215.277,282.333 215.000 C 282.379 214.943,282.587 214.781,282.795 214.639 C 283.542 214.129,287.181 210.462,287.919 209.476 C 288.012 209.352,288.545 208.688,289.104 208.000 C 289.971 206.933,290.958 205.420,291.386 204.500 C 291.450 204.362,291.691 203.950,291.921 203.583 C 292.152 203.217,292.483 202.617,292.657 202.250 C 293.116 201.286,293.667 200.017,293.667 199.923 C 293.667 199.879,293.850 199.447,294.075 198.963 C 294.540 197.961,295.112 196.379,295.343 195.458 C 296.841 189.486,297.170 186.993,297.161 181.667 C 297.157 179.082,296.815 174.839,296.511 173.583 C 296.422 173.217,296.264 172.542,296.158 172.083 C 295.558 169.468,295.327 168.657,294.979 167.943 C 294.807 167.590,294.667 167.152,294.667 166.968 C 294.667 166.654,294.104 165.702,293.789 165.483 C 293.504 165.286,293.167 164.452,293.167 163.944 C 293.167 163.296,292.482 161.813,292.226 161.906 C 291.937 162.012,291.000 160.800,291.000 160.320 C 291.000 160.219,290.850 159.945,290.667 159.712 C 290.483 159.479,290.333 159.082,290.333 158.829 C 290.333 158.478,290.235 158.345,289.917 158.265 C 289.688 158.207,289.500 158.098,289.500 158.023 C 289.500 157.947,289.144 157.464,288.708 156.948 C 288.273 156.433,287.617 155.624,287.250 155.150 C 286.467 154.139,284.003 151.653,283.167 151.029 C 282.846 150.790,282.314 150.367,281.984 150.089 C 280.862 149.141,280.583 148.928,279.429 148.131 C 278.794 147.692,278.189 147.333,278.086 147.333 C 277.983 147.333,277.640 147.139,277.324 146.902 C 276.587 146.349,273.049 144.632,271.750 144.198 C 270.101 143.646,268.467 143.181,267.583 143.013 C 267.125 142.925,266.262 142.721,265.667 142.559 C 264.516 142.245,217.791 142.035,215.167 142.331 M181.150 145.619 C 181.092 156.340,181.107 155.939,180.766 156.316 C 180.529 156.578,180.508 156.667,180.683 156.667 C 181.240 156.669,183.310 157.935,184.386 158.931 C 185.030 159.527,185.637 159.983,185.737 159.945 C 185.837 159.906,186.015 159.978,186.132 160.104 C 186.250 160.230,186.297 160.333,186.236 160.333 C 186.175 160.333,186.220 160.447,186.335 160.586 C 186.450 160.724,186.666 160.818,186.814 160.794 C 186.986 160.766,187.083 160.869,187.084 161.081 C 187.084 161.264,187.215 161.437,187.375 161.468 C 187.536 161.499,187.667 161.626,187.667 161.751 C 187.667 161.876,187.817 162.025,188.000 162.083 C 188.183 162.142,188.333 162.273,188.333 162.375 C 188.333 162.711,189.026 163.312,189.309 163.222 C 189.498 163.162,189.520 163.181,189.381 163.282 C 189.136 163.460,193.391 167.755,193.917 167.861 C 194.128 167.904,194.231 168.038,194.198 168.227 C 194.165 168.415,194.274 168.559,194.490 168.616 C 194.679 168.665,194.833 168.776,194.833 168.861 C 194.833 169.132,196.015 170.246,196.305 170.248 C 196.458 170.249,196.585 170.364,196.586 170.503 C 196.589 170.731,197.224 171.500,197.409 171.500 C 197.554 171.500,198.333 172.350,198.333 172.508 C 198.333 172.595,198.390 172.658,198.458 172.647 C 198.848 172.585,199.026 172.692,198.934 172.932 C 198.866 173.109,198.943 173.227,199.166 173.285 C 199.350 173.333,199.500 173.466,199.500 173.581 C 199.500 173.696,199.762 173.969,200.082 174.187 C 200.402 174.405,200.665 174.677,200.666 174.792 C 200.666 174.906,200.817 175.000,201.000 175.000 C 201.224 175.000,201.333 175.111,201.333 175.337 C 201.333 175.534,201.490 175.735,201.708 175.819 C 201.915 175.898,202.356 176.252,202.689 176.606 C 203.022 176.960,203.530 177.437,203.816 177.666 C 204.103 177.895,204.300 178.179,204.255 178.297 C 204.210 178.414,204.359 178.595,204.587 178.698 C 204.814 178.802,205.000 178.974,205.000 179.081 C 205.000 179.188,205.200 179.457,205.444 179.679 C 205.687 179.902,205.834 179.990,205.768 179.877 C 205.688 179.738,205.734 179.703,205.908 179.770 C 206.138 179.858,206.176 179.929,206.163 180.252 C 206.152 180.533,206.716 181.333,206.926 181.333 C 207.224 181.333,217.165 171.343,217.166 171.042 C 217.166 170.917,216.947 170.833,216.622 170.833 C 216.124 170.833,215.152 169.906,205.164 159.902 C 197.912 152.638,193.831 148.672,193.000 148.083 C 192.313 147.595,191.563 146.994,191.333 146.748 C 191.104 146.502,190.548 146.112,190.096 145.883 C 189.645 145.653,188.895 145.212,188.430 144.903 C 187.964 144.594,186.646 144.011,185.500 143.607 C 184.354 143.203,183.304 142.832,183.167 142.783 C 183.029 142.734,182.523 142.647,182.042 142.591 L 181.167 142.489 181.150 145.619 M237.250 160.667 C 237.067 160.745,234.048 160.815,230.542 160.822 L 224.167 160.833 224.167 163.833 C 224.167 170.537,224.924 169.351,213.097 181.169 C 204.752 189.509,203.309 191.020,203.486 191.234 C 203.601 191.372,203.654 191.552,203.604 191.634 C 203.553 191.716,203.734 191.995,204.006 192.256 C 204.278 192.516,204.500 192.675,204.500 192.609 C 204.500 192.542,204.650 192.569,204.833 192.667 C 205.017 192.765,205.167 192.981,205.167 193.147 C 205.167 193.490,205.719 194.058,205.889 193.889 C 205.950 193.828,206.000 193.900,206.000 194.050 C 206.000 194.224,206.091 194.288,206.250 194.227 C 206.424 194.160,206.500 194.239,206.500 194.488 C 206.500 194.695,206.643 194.897,206.842 194.971 C 207.031 195.040,207.281 195.282,207.398 195.507 C 207.515 195.732,207.717 195.892,207.847 195.861 C 207.977 195.831,208.025 195.863,207.955 195.934 C 207.774 196.115,209.171 197.500,209.535 197.500 C 209.699 197.500,209.833 197.608,209.833 197.741 C 209.833 198.031,210.740 199.017,211.376 199.417 C 211.629 199.576,211.981 200.035,212.158 200.436 C 212.336 200.838,212.580 201.167,212.701 201.167 C 212.939 201.167,233.315 180.756,234.000 179.831 C 235.171 178.251,235.751 177.153,236.507 175.083 C 236.708 174.533,236.941 173.949,237.025 173.785 C 237.167 173.508,237.265 172.945,237.701 169.917 C 237.793 169.275,237.901 166.894,237.940 164.625 C 238.015 160.254,238.029 160.332,237.250 160.667 M184.819 167.875 C 184.348 168.356,183.689 169.083,183.356 169.491 C 183.023 169.899,179.525 173.463,175.583 177.412 C 166.950 186.061,166.430 186.651,165.092 189.316 C 163.716 192.056,163.000 196.185,163.000 201.383 C 163.000 203.987,162.990 204.065,162.575 204.609 L 162.150 205.167 169.398 205.167 L 176.647 205.167 176.699 200.708 L 176.750 196.250 177.184 195.536 C 177.761 194.583,181.177 191.028,189.375 182.846 C 195.772 176.462,196.474 175.695,195.958 175.647 C 195.844 175.637,195.675 175.611,195.583 175.589 C 195.492 175.568,195.298 175.539,195.154 175.525 C 195.009 175.511,193.763 174.394,192.383 173.042 C 188.861 169.588,186.064 167.000,185.854 167.000 C 185.756 167.000,185.291 167.394,184.819 167.875 M186.783 191.134 L 182.151 195.768 182.471 196.176 C 182.648 196.400,182.791 196.658,182.790 196.750 C 182.788 196.842,182.966 197.009,183.185 197.123 C 183.404 197.236,183.531 197.330,183.466 197.331 C 183.289 197.335,184.098 198.167,184.280 198.167 C 184.482 198.167,185.333 199.051,185.333 199.261 C 185.333 199.349,185.502 199.495,185.708 199.585 C 185.915 199.676,186.157 199.919,186.248 200.125 C 186.338 200.331,186.492 200.500,186.588 200.500 C 187.108 200.500,189.792 203.495,189.580 203.838 C 189.525 203.927,189.597 204.000,189.740 204.000 C 189.883 204.000,190.000 204.114,190.000 204.254 C 190.000 204.394,190.180 204.577,190.400 204.661 C 190.621 204.744,190.857 204.904,190.926 205.015 C 191.013 205.156,190.979 205.176,190.817 205.082 C 190.689 205.007,190.760 205.140,190.976 205.378 C 191.192 205.615,191.473 205.769,191.601 205.720 C 191.751 205.663,191.833 205.747,191.833 205.956 C 191.833 206.316,192.380 206.898,192.554 206.724 C 192.668 206.610,193.333 207.284,193.333 207.513 C 193.333 207.845,194.199 208.644,194.453 208.546 C 194.655 208.469,194.698 208.512,194.620 208.716 C 194.520 208.976,194.743 209.242,195.067 209.247 C 195.149 209.249,195.261 209.362,195.317 209.500 C 195.372 209.637,195.529 209.750,195.667 209.750 C 195.804 209.750,195.897 209.871,195.873 210.019 C 195.849 210.168,195.942 210.383,196.081 210.498 C 196.281 210.664,196.333 210.665,196.333 210.500 C 196.333 210.337,196.389 210.339,196.591 210.506 C 196.733 210.624,196.812 210.815,196.767 210.931 C 196.681 211.158,197.113 211.609,197.268 211.454 C 197.319 211.403,197.511 211.511,197.694 211.694 C 197.878 211.878,197.990 212.065,197.944 212.111 C 197.898 212.158,198.018 212.377,198.211 212.599 C 198.477 212.905,198.599 212.952,198.713 212.793 C 198.822 212.642,198.841 212.659,198.779 212.855 C 198.670 213.197,198.964 213.503,199.283 213.381 C 199.450 213.317,199.508 213.384,199.471 213.599 C 199.441 213.769,199.492 213.917,199.583 213.927 C 200.000 213.973,200.333 214.228,200.333 214.502 C 200.333 215.037,203.504 217.787,203.863 217.565 C 203.938 217.518,204.000 217.591,204.000 217.727 C 204.000 217.995,205.280 219.167,205.573 219.167 C 205.672 219.167,205.940 219.340,206.168 219.551 C 207.957 221.207,214.764 223.333,218.279 223.333 L 219.500 223.333 219.500 216.083 C 219.500 212.096,219.471 208.833,219.436 208.833 C 219.400 208.833,219.157 208.945,218.894 209.082 C 217.808 209.649,212.833 208.086,212.833 207.178 C 212.833 207.095,212.590 206.875,212.292 206.690 C 211.994 206.504,207.289 201.886,201.836 196.426 C 196.384 190.967,191.809 186.500,191.669 186.500 C 191.529 186.500,189.330 188.585,186.783 191.134 M228.665 190.918 L 224.250 195.336 224.150 219.376 C 224.085 234.852,223.987 243.803,223.875 244.500 C 223.612 246.130,223.180 247.822,222.835 248.577 C 220.506 253.662,219.968 254.494,217.243 257.235 C 212.681 261.825,207.038 264.000,199.691 264.000 C 198.425 264.000,196.983 263.930,196.486 263.845 C 195.990 263.760,195.058 263.605,194.417 263.501 C 193.775 263.397,192.987 263.206,192.667 263.078 C 192.346 262.951,191.783 262.770,191.416 262.678 C 190.464 262.438,186.494 260.359,185.664 259.667 C 185.279 259.346,184.616 258.790,184.191 258.432 C 182.402 256.927,179.778 253.796,179.336 252.639 C 179.184 252.242,178.929 251.643,178.769 251.309 C 178.609 250.975,178.473 250.450,178.466 250.143 C 178.458 249.835,178.284 249.198,178.077 248.728 C 177.010 246.292,176.801 244.262,176.724 235.524 L 176.657 227.964 176.287 228.102 C 176.083 228.178,173.010 228.263,169.458 228.291 L 163.000 228.341 162.998 236.379 C 162.995 246.149,163.221 247.928,165.085 252.833 C 165.416 253.704,165.766 254.679,165.863 254.999 C 165.959 255.319,166.142 255.730,166.269 255.911 C 166.396 256.092,166.500 256.362,166.500 256.509 C 166.500 256.657,166.813 257.222,167.195 257.764 C 167.577 258.306,168.011 259.050,168.158 259.417 C 168.572 260.450,169.493 261.970,169.900 262.292 C 170.103 262.452,170.414 262.880,170.592 263.242 C 170.775 263.614,171.244 264.128,171.667 264.421 C 172.150 264.756,172.483 265.141,172.603 265.505 C 172.705 265.815,172.874 266.097,172.978 266.131 C 173.082 266.166,173.167 266.289,173.167 266.405 C 173.167 266.679,173.744 267.200,173.889 267.056 C 173.950 266.995,174.000 267.043,174.000 267.163 C 174.000 267.446,175.134 268.833,175.365 268.833 C 175.462 268.833,176.008 269.270,176.579 269.804 C 177.150 270.339,178.247 271.136,179.017 271.577 C 179.787 272.018,180.764 272.631,181.189 272.940 C 181.614 273.248,182.008 273.500,182.066 273.500 C 182.124 273.500,182.751 273.772,183.460 274.105 C 184.642 274.658,185.728 275.145,186.583 275.503 C 186.993 275.674,189.341 276.397,190.250 276.631 C 196.451 278.229,208.168 277.819,212.750 275.843 C 212.933 275.764,213.533 275.533,214.083 275.330 C 215.254 274.898,219.137 273.052,219.500 272.754 C 219.637 272.642,220.088 272.370,220.500 272.150 C 220.912 271.931,221.653 271.451,222.147 271.084 C 222.640 270.717,223.251 270.267,223.505 270.083 C 225.797 268.429,227.544 266.677,230.208 263.361 C 233.242 259.583,236.241 253.075,237.151 248.292 C 237.603 245.915,237.673 245.514,237.832 244.385 C 238.211 241.685,238.046 196.966,237.651 195.258 C 237.147 193.082,236.947 192.574,236.614 192.632 C 236.317 192.684,236.217 192.400,236.499 192.306 C 236.729 192.229,236.173 190.325,235.889 190.216 C 235.767 190.169,235.667 190.022,235.667 189.889 C 235.667 189.756,235.592 189.693,235.500 189.750 C 235.408 189.807,235.333 189.717,235.333 189.552 C 235.333 189.386,235.071 189.040,234.750 188.784 C 234.165 188.318,233.500 187.239,233.500 186.757 C 233.500 186.168,232.873 186.708,228.665 190.918 " stroke="none" fill="#ebebeb" fill-rule="evenodd"></path></g></svg>